<?xml version="1.0" standalone="no"?>
<!DOCTYPE svg PUBLIC "-//W3C//DTD SVG 20010904//EN"
 "http://www.w3.org/TR/2001/REC-SVG-20010904/DTD/svg10.dtd">
<svg version="1.0" xmlns="http://www.w3.org/2000/svg"
 width="2048.000000pt" height="2048.000000pt" viewBox="0 0 2048.000000 2048.000000"
 preserveAspectRatio="xMidYMid meet">
<metadata>
Created by potrace 1.14, written by Peter Selinger 2001-2017
</metadata>
<g transform="translate(0.000000,2048.000000) scale(0.100000,-0.100000)"
fill="#000000" stroke="none">
<path d="M9435 17684 c-113 -28 -202 -81 -295 -174 -96 -96 -137 -168 -170
-296 -76 -297 87 -626 365 -738 33 -13 483 -137 1000 -276 517 -138 941 -252
941 -253 1 -1 -40 -157 -91 -347 l-92 -345 -149 -7 c-905 -44 -1723 -567
-2143 -1368 -63 -122 -136 -295 -171 -407 -61 -198 -1386 -5167 -1406 -5273
-152 -814 116 -1669 711 -2266 60 -60 146 -139 189 -174 65 -52 271 -195 341
-235 16 -10 -9 -110 -331 -1305 l-348 -1295 -1 -125 c0 -151 22 -233 95 -344
212 -324 644 -392 945 -149 71 58 155 171 184 248 12 31 175 630 362 1333 188
702 345 1280 348 1284 3 4 78 12 166 17 188 13 304 30 475 72 762 187 1423
745 1728 1459 27 63 65 165 85 225 60 182 1387 5150 1412 5285 70 376 57 722
-40 1106 -46 179 -91 300 -185 489 -128 260 -284 478 -486 680 -126 126 -233
213 -399 323 -71 47 -133 89 -138 92 -4 3 33 157 83 342 49 185 90 339 90 342
0 3 6 6 14 6 8 0 393 -102 857 -226 1151 -309 1049 -284 1154 -284 173 0 331
64 450 184 126 126 188 279 187 461 0 178 -67 330 -199 456 -89 84 -190 135
-358 179 -66 17 -1195 320 -2510 672 l-2390 641 -110 3 c-74 2 -130 -2 -170
-12z m1905 -3743 c500 -115 869 -486 981 -986 26 -118 32 -366 10 -475 -12
-62 -100 -398 -236 -900 -35 -129 -303 -1128 -595 -2220 -292 -1092 -540
-2012 -552 -2045 -35 -100 -114 -245 -182 -335 -196 -261 -488 -440 -806 -496
-141 -24 -391 -15 -520 19 -403 106 -711 368 -872 739 -102 235 -131 524 -77
765 5 23 210 791 455 1705 245 915 457 1706 471 1758 253 955 441 1640 468
1708 165 408 530 697 985 778 106 19 359 11 470 -15z"/>
</g>
</svg>
